# AST/ASF file generated using VICON BodyLanguage
# -----------------------------------------------
:version 1.10
:name VICON
:units
  mass 1.0
  length 0.45
  angle deg
:documentation
   .ast/.asf automatically generated from VICON data using
   VICON BodyBuilder and BodyLanguage model FoxedUp or BRILLIANT.MOD
:root
   order TX TY TZ RX RY RZ
   axis XYZ
   position 0 0 0  
   orientation 0 0 0 
:bonedata
  begin
     id 1 
     name lhipjoint
     direction 0.700308 -0.549349 0.455834 
     length 2.59063 
     axis 0 0 0  XYZ
  end
  begin
     id 2 
     name lfemur
     direction 0.34202 -0.939693 0  
     length 6.31066  
     axis 0 0 20  XYZ
    dof rx ry rz
    limits (-160.0 20.0)
           (-70.0 70.0)
           (-60.0 70.0)
  end
  begin
     id 3 
     name ltibia
     direction 0.34202 -0.939693 0   
     length 7.36093   
     axis 0 0 20   XYZ
    dof rx
    limits (-10.0 170.0)
  end
  begin
     id 4 
     name lfoot
     direction 0.0905332 -0.248738 0.96433   
     length 2.0233   
     axis -90 7.62852e-016 20   XYZ
    dof rx rz
    limits (-45.0 90.0)
           (-70.0 20.0)
  end
  begin
     id 5 
     name ltoes
     direction 1.53573e-011 -4.21855e-011 1   
     length 1.01524   
     axis -90 7.62852e-016 20   XYZ
    dof rx
    limits (-90.0 20.0)
  end
  begin
     id 6 
     name rhipjoint
     direction -0.61416 -0.607328 0.503944   
     length 2.34332  
     axis 0 0 0  XYZ 
  end
  begin
     id 7 
     name rfemur
     direction -0.34202 -0.939693 0   
     length 6.58548   
     axis 0 0 -20   XYZ
    dof rx ry rz
    limits (-160.0 20.0)
           (-70.0 70.0)
           (-70.0 60.0)
  end
  begin
     id 8 
     name rtibia
     direction -0.34202 -0.939693 0   
     length 7.20707   
     axis 0 0 -20   XYZ
    dof rx
    limits (-10.0 170.0)
 end
 begin
     id 9 
     name rfoot
     direction -0.136772 -0.375778 0.916561   
     length 1.92184  
     axis -90 -7.62852e-016 -20   XYZ
    dof rx rz
    limits (-45.0 90.0)
           (-20.0 70.0)
  end
  begin
     id 10 
     name rtoes
     direction -1.53535e-011 -4.21828e-011 1   
     length 0.951089   
     axis -90 -7.62852e-016 -20   XYZ
    dof rx
    limits (-90.0 20.0)
  end
  begin
     id 11 
     name lowerback
     direction -0.0444974 0.988086 -0.147332   
     length 1.9609   
     axis 0 0 0   XYZ
    dof rx ry rz
    limits (-20.0 45.0)
           (-30.0 30.0)
           (-30.0 30.0)
  end
  begin
     id 12 
     name upperback
     direction 0.00613146 0.999513 0.0306081   
     length 1.94944   
     axis 0 0 0   XYZ
    dof rx ry rz
    limits (-20.0 45.0)
           (-30.0 30.0)
           (-30.0 30.0)
  end
  begin
     id 13 
     name thorax
     direction 0.0254621 0.994518 0.101418   
     length 2.0119   
     axis 0 0 0   XYZ
    dof rx ry rz
    limits (-20.0 45.0)
           (-30.0 30.0)
           (-30.0 30.0)
  end
  begin
     id 14 
     name lowerneck
     direction 0.0168698 0.977854 0.208608   
     length 1.6375   
     axis 0 0 0   XYZ
    dof rx ry rz
    limits (-20.0 45.0)
           (-30.0 30.0)
           (-30.0 30.0)
  end
  begin
     id 15 
     name upperneck
     direction -0.0283988 0.989338 -0.142843   
     length 1.6851   
     axis 0 0 0   XYZ
    dof rx ry rz
    limits (-20.0 45.0)
           (-30.0 30.0)
           (-30.0 30.0)
  end
  begin
     id 16
     name head
     direction -0.0129422 0.99741 -0.0707489  
     length 1.69029  
     axis 0 0 0   XYZ
    dof rx ry rz
    limits (-20.0 45.0)
           (-30.0 30.0)
           (-30.0 30.0)
  end
  begin
     id 17 
     name lclavicle
     direction 0.820295 0.564628 -0.0911715  
     length 3.16484  
     axis 0 0 0   XYZ
    dof ry rz
    limits (-20.0 10.0)
           (0.0 20.0)
  end
  begin
     id 18 
     name lhumerus
     direction 1 -4.48969e-011 1.00186e-027   
     length 5.17853   
     axis 180 -30 -90   XYZ
    dof rx ry rz
    limits (-60.0 90.0)
           (-90.0 90.0)
           (-90.0 90.0)
  end
  begin
     id 19
     name lradius
     direction 1 -4.48966e-011 -1.52922e-027   
     length 3.40399   
     axis 180 -30 -90   XYZ
    dof rx
    limits (-10.0 170.0)
  end
  begin
     id 20
     name lwrist
     direction 1 -4.48981e-011 -3.80893e-027   
     length 1.70199   
     axis 1.1049e-015 90 90   XYZ
    dof ry
    limits (-180.0 0.0)
 end
  begin
     id 21 
     name lhand
     direction 1 -4.48957e-011 -7.61786e-027   
     length 0.708964   
     axis 4.86085e-015 90 90   XYZ
    dof rx rz
    limits (-90.0 90.0)
           (-45.0 45.0)
  end
  begin
     id 22 
     name lfingers
     direction 1 -4.48929e-011 -1.52357e-026   
     length 0.571585   
     axis 9.7217e-015 90 90   XYZ
    dof rx
    limits (0.0 90.0)
  end
  begin
     id 23
     name lthumb
     direction 0.707107 -6.34905e-011 0.707107   
     length 0.820685   
     axis -90 45 2.85299e-015   XYZ
    dof rx rz
    limits (-45.0 45.0)
           (-45.0 45.0)
  end
  begin
     id 24 
     name rclavicle
     direction -0.858602 0.463947 -0.218075   
     length 3.35137  
     axis 0 0 0   XYZ 
    dof ry rz
    limits (-10.0 20.0)
           (-20.0 0.0)
  end
  begin
     id 25 
     name rhumerus
     direction -1 -4.48969e-011 -1.98511e-027  
     length 5.42351   
     axis 180 30 90   XYZ
    dof rx ry rz
    limits (-90.0 60.0)
           (-90.0 90.0)
           (-90.0 90.0)
  end
  begin
     id 26 
     name rradius
     direction -1 -4.48961e-011 -2.82624e-027   
     length 3.42066   
     axis 180 30 90   XYZ
    dof rx
    limits (-10.0 170.0)
  end
  begin
     id 27 
     name rwrist
     direction -1 -4.48966e-011 -3.80893e-027   
     length 1.71033   
     axis 1.1049e-015 -90 -90   XYZ
    dof ry
    limits (-180.0 0.0)
  end
  begin
     id 28
     name rhand
     direction -1 -4.48964e-011 -7.61786e-027   
     length 0.743608   
     axis 4.86085e-015 -90 -90   XYZ
    dof rx rz
    limits (-90.0 90.0)
           (-45.0 45.0)
  end
  begin
     id 29
     name rfingers
     direction -1 -4.48961e-011 -1.52357e-026   
     length 0.599516   
     axis 9.7217e-015 -90 -90   XYZ
    dof rx
    limits (0.0 90.0)
  end
  begin
     id 30
     name rthumb
     direction -0.707107 -6.34913e-011 0.707107   
     length 0.860789   
     axis -90 -45 -2.85299e-015   XYZ
    dof rx rz
    limits (-45.0 45.0)
           (-45.0 45.0)
  end
:hierarchy
  begin
    root lhipjoint rhipjoint lowerback
    lhipjoint lfemur
    lfemur ltibia
    ltibia lfoot
    lfoot ltoes
    rhipjoint rfemur
    rfemur rtibia
    rtibia rfoot
    rfoot rtoes
    lowerback upperback
    upperback thorax
    thorax lowerneck lclavicle rclavicle
    lowerneck upperneck
    upperneck head
    lclavicle lhumerus
    lhumerus lradius
    lradius lwrist
    lwrist lhand lthumb
    lhand lfingers
    rclavicle rhumerus
    rhumerus rradius
    rradius rwrist
    rwrist rhand rthumb
    rhand rfingers
  end

#!OML:ASF E:\mmandel\Project 1\Capture day 1\Session 2\Subject.ASF
:FULLY-SPECIFIED
:DEGREES
1197
root 7.94383 14.3883 -2.02279 34.452 84.0703 13.4972
lowerback 16.7016 2.52789 -4.76703
upperback 1.86002 2.53584 -0.203189
thorax -7.56362 1.40511 1.8955
lowerneck -15.7067 3.68623 5.12353
upperneck 6.11349 4.52425 -5.88186
head 4.62255 1.99512 -2.26984
rclavicle 1.02374e-014 5.36719e-015
rhumerus -18.8069 -0.985337 -80.6043
rradius 78.073
rwrist -17.0927
rhand -15.618 32.8967
rfingers 7.12502
rthumb 10.5687 3.18245
lclavicle 1.02374e-014 5.36719e-015
lhumerus -16.0685 -17.1198 77.9289
lradius 73.8369
lwrist 25.2238
lhand -16.2829 -31.3108
lfingers 7.12502
lthumb 9.92725 -1.56488
rfemur -59.9423 -11.8559 10.7751
rtibia 70.8935
rfoot -30.6474 -1.90177
rtoes -14.9916
lfemur -57.6639 24.1078 -20.788
ltibia 69.5209
lfoot -27.0336 -6.30414
ltoes 9.69424
1198
root 7.93993 14.3961 -2.05069 34.5975 83.9196 13.5728
lowerback 16.6408 2.54273 -4.96928
upperback 1.87087 2.52224 -0.206445
thorax -7.52586 1.40393 2.01172
lowerneck -15.7975 3.54984 5.04402
upperneck 6.00257 4.35689 -5.93167
head 4.593 1.90811 -2.28718
rclavicle 2.83268e-014 2.127e-014
rhumerus -18.5931 -0.904634 -80.6252
rradius 77.828
rwrist -17.0799
rhand -15.8176 32.8888
rfingers 7.12502
rthumb 10.3761 3.16477
lclavicle 2.83268e-014 2.127e-014
lhumerus -15.9952 -17.0024 77.8909
lradius 73.8759
lwrist 25.3225
lhand -16.1104 -31.2962
lfingers 7.12502
lthumb 10.0937 -1.55828
rfemur -60.004 -11.8089 10.6008
rtibia 70.7499
rfoot -30.4944 -1.85913
rtoes -14.9762
lfemur -57.7593 24.1193 -21.0293
ltibia 69.5372
lfoot -27.1698 -6.20217
ltoes 9.63805
1199
root 7.93602 14.3978 -2.08083 33.3084 83.8333 12.2557
lowerback 16.6623 2.56891 -4.96523
upperback 1.87231 2.55813 -0.177381
thorax -7.54012 1.42163 2.03146
lowerneck -16.0155 3.35198 5.06897
upperneck 6.02308 4.10123 -6.12808
head 4.62551 1.76774 -2.37363
rclavicle -6.95746e-015 -1.53064e-014
rhumerus -18.5791 -0.899164 -80.6252
rradius 77.767
rwrist -17.1189
rhand -15.9499 33.0974
rfingers 7.12502
rthumb 10.2484 3.36704
lclavicle -6.95746e-015 -1.53064e-014
lhumerus -15.9556 -17.0297 77.8342
lradius 73.9081
lwrist 25.4379
lhand -16.1698 -31.1538
lfingers 7.12502
lthumb 10.0364 -1.41307
rfemur -60.0185 -11.7152 10.5744
rtibia 70.6395
rfoot -30.426 -1.77519
rtoes -14.7844
lfemur -57.8609 24.2196 -21.0796
ltibia 69.6579
lfoot -27.2419 -6.24955
ltoes 9.77672
1200
root 7.9314 14.3872 -2.11057 32.4851 83.8419 11.4591
lowerback 16.7725 2.54818 -4.91383
upperback 1.85539 2.53539 -0.148576
thorax -7.61654 1.41098 2.03459
lowerneck -15.9849 3.3274 4.91376
upperneck 6.11924 4.10929 -6.16595
head 4.64904 1.76475 -2.35989
rclavicle 1.42131e-014 1.41137e-014
rhumerus -18.6917 -0.846899 -80.6086
rradius 77.823
rwrist -17.1778
rhand -15.985 33.1938
rfingers 7.12502
rthumb 10.2147 3.4618
lclavicle 1.42131e-014 1.41137e-014
lhumerus -15.9694 -17.0288 77.8041
lradius 73.9341
lwrist 25.4401
lhand -16.1698 -31.2264
lfingers 7.12502
lthumb 10.0364 -1.48576
rfemur -59.9778 -11.7311 10.5139
rtibia 70.5337
rfoot -30.3375 -1.62067
rtoes -14.6208
lfemur -57.956 24.2019 -21.1053
ltibia 69.7864
lfoot -27.2639 -6.1634
ltoes 9.34702
1201
root 7.9269 14.388 -2.13965 32.0575 83.8843 11.0359
lowerback 16.8256 2.49537 -4.88513
upperback 1.81144 2.46776 -0.12456
thorax -7.68831 1.37937 2.05753
lowerneck -15.7824 3.37329 4.80152
upperneck 6.15752 4.20803 -6.21852
head 4.63346 1.8096 -2.35122
rclavicle 4.34344e-014 -1.27222e-014
rhumerus -18.799 -0.776487 -80.6303
rradius 77.8211
rwrist -17.109
rhand -15.895 33.1476
rfingers 7.12502
rthumb 10.3015 3.41986
lclavicle 4.34344e-014 -1.27222e-014
lhumerus -16.095 -16.9646 77.8037
lradius 73.9644
lwrist 25.4108
lhand -16.1818 -31.3225
lfingers 7.12502
lthumb 10.0248 -1.58127
rfemur -59.8944 -11.8242 10.4588
rtibia 70.3986
rfoot -30.2567 -1.47489
rtoes -14.501
lfemur -58.0447 24.1153 -21.1791
ltibia 69.8756
lfoot -27.334 -5.96032
ltoes 8.9032
1202
root 7.92494 14.4095 -2.16813 30.6422 83.9256 9.60765
lowerback 16.7873 2.47428 -4.77418
upperback 1.81851 2.46476 -0.0971728
thorax -7.65586 1.37418 2.02642
lowerneck -15.8086 3.27995 4.79876
upperneck 6.18673 4.08672 -6.24617
head 4.64063 1.74741 -2.37011
rclavicle -1.19271e-014 -3.18055e-015
rhumerus -18.8123 -0.794999 -80.6371
rradius 77.8329
rwrist -17.0891
rhand -15.7535 32.9848
rfingers 7.12502
rthumb 10.4379 3.26395
lclavicle -1.19271e-014 -3.18055e-015
lhumerus -16.0983 -17.0325 77.7347
lradius 73.925
lwrist 25.3629
lhand -16.4083 -31.2933
lfingers 7.12502
lthumb 9.80628 -1.54163
rfemur -59.7225 -11.8343 10.5407
rtibia 70.1339
rfoot -30.1807 -1.42996
rtoes -14.4248
lfemur -58.0222 24.0341 -21.1292
ltibia 69.8633
lfoot -27.425 -5.89216
ltoes 9.52051
1203
root 7.92505 14.3997 -2.19317 29.5638 83.8729 8.49951
lowerback 16.6689 2.49324 -4.77255
upperback 1.87277 2.49988 -0.0856337
thorax -7.53483 1.3888 2.0347
lowerneck -16.1261 3.0279 4.78274
upperneck 6.29456 3.74759 -6.26142
head 4.70586 1.57347 -2.40026
rclavicle 5.28767e-014 -5.20816e-014
rhumerus -18.7849 -0.835762 -80.6113
rradius 77.8984
rwrist -17.1733
rhand -15.7096 33.0067
rfingers 7.12502
rthumb 10.4803 3.28795
lclavicle 5.28767e-014 -5.20816e-014
lhumerus -15.8933 -17.0978 77.6437
lradius 73.7586
lwrist 25.3013
lhand -16.4537 -31.3458
lfingers 7.12502
lthumb 9.76243 -1.59208
rfemur -59.7587 -11.7836 10.5361
rtibia 70.005
rfoot -30.0458 -1.43578
rtoes -14.5012
lfemur -58.1256 24.0172 -21.1125
ltibia 69.9788
lfoot -27.5173 -5.83943
ltoes 9.92597
1204
root 7.92296 14.4057 -2.21995 28.5522 83.7166 7.42909
lowerback 16.5912 2.53604 -4.80965
upperback 1.8312 2.54931 -0.104792
thorax -7.54154 1.41347 2.02517
lowerneck -16.1337 2.82075 4.82027
upperneck 6.28983 3.47394 -6.36932
head 4.69333 1.43319 -2.4651
rclavicle 1.49089e-014 7.95139e-015
rhumerus -18.8912 -0.863902 -80.6435
rradius 77.8995
rwrist -17.23
rhand -15.676 33.1788
rfingers 7.12502
rthumb 10.5127 3.46173
lclavicle 1.49089e-014 7.95139e-015
lhumerus -15.8681 -17.1107 77.607
lradius 73.68
lwrist 25.3959
lhand -16.2739 -31.461
lfingers 7.12502
lthumb 9.93593 -1.71552
rfemur -59.7781 -11.6421 10.493
rtibia 69.7996
rfoot -29.8984 -1.43072
rtoes -14.5062
lfemur -58.2067 24.1841 -21.2277
ltibia 69.984
lfoot -27.5793 -5.7673
ltoes 9.61359
1205
root 7.91864 14.4153 -2.2479 27.5165 83.5523 6.38654
lowerback 16.556 2.57389 -4.83998
upperback 1.83875 2.59459 -0.118233
thorax -7.51807 1.43543 2.01863
lowerneck -15.9642 2.82055 4.68724
upperneck 6.22291 3.49818 -6.31023
head 4.64342 1.44885 -2.424
rclavicle 3.3694e-014 7.7526e-015
rhumerus -18.8142 -0.902302 -80.715
rradius 77.7627
rwrist -17.1837
rhand -15.7087 33.1295
rfingers 7.12502
rthumb 10.4812 3.41084
lclavicle 3.3694e-014 7.7526e-015
lhumerus -15.8968 -17.0638 77.5608
lradius 73.7578
lwrist 25.5612
lhand -16.2713 -31.566
lfingers 7.12502
lthumb 9.93844 -1.82064
rfemur -59.7464 -11.5098 10.4463
rtibia 69.6211
rfoot -29.7694 -1.39303
rtoes -14.7383
lfemur -58.1992 24.2926 -21.3007
ltibia 69.9792
lfoot -27.6544 -5.70956
ltoes 9.71234
1206
root 7.91394 14.4219 -2.27484 27.2412 83.4228 6.14168
lowerback 16.5689 2.57065 -4.94183
upperback 1.87196 2.5723 -0.129639
thorax -7.49142 1.42706 2.06943
lowerneck -15.7743 2.7798 4.43552
upperneck 6.08854 3.47728 -6.13102
head 4.56216 1.44806 -2.33038
rclavicle 1.88845e-014 -4.17448e-015
rhumerus -18.6494 -0.87817 -80.7999
rradius 77.5836
rwrist -17.0758
rhand -15.7993 33.1018
rfingers 7.12502
rthumb 10.3938 3.37872
lclavicle 1.88845e-014 -4.17448e-015
lhumerus -15.9233 -16.9216 77.4574
lradius 73.8861
lwrist 25.6534
lhand -16.2826 -31.4471
lfingers 7.12502
lthumb 9.92753 -1.70118
rfemur -59.6859 -11.4634 10.3281
rtibia 69.4383
rfoot -29.6273 -1.34291
rtoes -15.0611
lfemur -58.1161 24.193 -21.3723
ltibia 69.945
lfoot -27.7238 -5.48167
ltoes 9.87341
1207
root 7.91235 14.4239 -2.30154 27.3669 83.3732 6.33008
lowerback 16.6252 2.53899 -5.02071
upperback 1.87563 2.51153 -0.160205
thorax -7.51569 1.40032 2.0936
lowerneck -15.662 2.64482 4.27187
upperneck 6.04675 3.31093 -5.94059
head 4.51576 1.37598 -2.25978
rclavicle 2.61402e-014 1.98785e-015
rhumerus -18.6099 -0.834822 -80.8699
rradius 77.4574
rwrist -17.0357
rhand -15.7751 33.2416
rfingers 7.12502
rthumb 10.4172 3.51967
lclavicle 2.61402e-014 1.98785e-015
lhumerus -15.9434 -16.8172 77.3584
lradius 73.9334
lwrist 25.7228
lhand -16.0479 -31.1833
lfingers 7.12502
lthumb 10.154 -1.44837
rfemur -59.58 -11.5288 10.1813
rtibia 69.2862
rfoot -29.4973 -1.26114
rtoes -15.1136
lfemur -58.0893 24.3206 -21.5725
ltibia 69.9486
lfoot -27.7584 -5.47252
ltoes 9.60185
1208
root 7.91303 14.4277 -2.32904 26.9324 83.4009 5.96455
lowerback 16.597 2.50801 -5.01989
upperback 1.92632 2.47703 -0.14118
thorax -7.44336 1.38249 2.12373
lowerneck -15.8681 2.55187 4.14156
upperneck 6.24837 3.20208 -5.8289
head 4.60127 1.32064 -2.21195
rclavicle -8.54774e-015 2.03754e-014
rhumerus -18.604 -0.817318 -80.8669
rradius 77.475
rwrist -17.0289
rhand -15.7052 33.1893
rfingers 7.12502
rthumb 10.4846 3.47077
lclavicle -8.54774e-015 2.03754e-014
lhumerus -15.8476 -16.7879 77.3561
lradius 73.8199
lwrist 25.698
lhand -15.965 -31.1948
lfingers 7.12502
lthumb 10.2339 -1.4637
rfemur -59.422 -11.6336 10.1264
rtibia 69.1288
rfoot -29.359 -1.20789
rtoes -15.1846
lfemur -58.0017 24.2397 -21.6059
ltibia 69.9445
lfoot -27.8058 -5.3805
ltoes 9.42157
1209
root 7.9093 14.4283 -2.35661 25.9442 83.4135 4.97276
lowerback 16.6206 2.48896 -4.9547
upperback 1.90962 2.46367 -0.110588
thorax -7.47206 1.37508 2.12175
lowerneck -15.9702 2.42722 4.07095
upperneck 6.38489 3.05308 -5.84063
head 4.65165 1.24174 -2.21682
rclavicle 3.18055e-014 1.04362e-014
rhumerus -18.7376 -0.834507 -80.8648
rradius 77.5965
rwrist -17.0165
rhand -15.6592 33.0357
rfingers 7.12502
rthumb 10.5289 3.31941
lclavicle 3.18055e-014 1.04362e-014
lhumerus -15.8588 -16.8272 77.3421
lradius 73.7577
lwrist 25.6049
lhand -16.0517 -31.2969
lfingers 7.12502
lthumb 10.1503 -1.56173
rfemur -59.3791 -11.6649 10.1486
rtibia 68.9899
rfoot -29.2506 -1.16378
rtoes -15.2121
lfemur -58.0479 24.1375 -21.5812
ltibia 69.9701
lfoot -27.7769 -5.25653
ltoes 9.30778
1210
root 7.90261 14.43 -2.38057 25.313 83.413 4.35106
lowerback 16.7978 2.47968 -4.90622
upperback 1.84713 2.44496 -0.139646
thorax -7.63265 1.36742 2.0604
lowerneck -15.9778 2.33347 3.97357
upperneck 6.55382 2.93873 -5.71516
head 4.69589 1.18852 -2.17194
rclavicle 2.23633e-014 -1.86858e-014
rhumerus -18.8484 -0.882621 -80.9154
rradius 77.607
rwrist -17.0942
rhand -15.6561 33.0793
rfingers 7.12502
rthumb 10.5319 3.36313
lclavicle 2.23633e-014 -1.86858e-014
lhumerus -15.9319 -16.901 77.2557
lradius 73.7909
lwrist 25.5595
lhand -15.9862 -31.2607
lfingers 7.12502
lthumb 10.2135 -1.52869
rfemur -59.3268 -11.6299 10.1316
rtibia 68.8465
rfoot -29.16 -1.17944
rtoes -15.3233
lfemur -58.1033 24.1009 -21.5971
ltibia 69.9985
lfoot -27.6745 -5.25752
ltoes 9.38477
